<svg viewBox="0 0 512 512" xml:space="preserve" xmlns="http://www.w3.org/2000/svg" height="24px" width="24px" fill-rule="evenodd" clip-rule="evenodd" stroke-linejoin="round" stroke-miterlimit="2"><path d="M501.303 132.765c-5.887-22.03-23.235-39.377-45.265-45.265C416.106 76.8 256 76.8 256 76.8s-160.107 0-200.039 10.7c-22.026 5.888-39.377 23.235-45.264 45.265C0 172.693 0 256.003 0 256.003s0 83.308 10.697 123.232c5.887 22.03 23.238 39.382 45.264 45.269C95.893 435.2 256 435.2 256 435.2s160.106 0 200.038-10.696c22.03-5.887 39.378-23.239 45.265-45.269 10.696-39.924 10.696-123.232 10.696-123.232s0-83.31-10.696-123.238ZM204.797 332.804V179.201l133.019 76.802-133.019 76.801Z" fill-rule="nonzero" fill="#5d737e" class="fill-000000"></path></svg>