<svg xmlns="http://www.w3.org/2000/svg" xmlns:xlink="http://www.w3.org/1999/xlink" viewBox="0 0 500 500" width="500" height="500" preserveAspectRatio="xMidYMid meet" style="width: 100%; height: 100%; transform: translate3d(0px, 0px, 0px); content-visibility: visible;"><defs><clipPath id="__lottie_element_1293"><rect width="500" height="500" x="0" y="0"></rect></clipPath></defs><g clip-path="url(#__lottie_element_1293)"><g transform="matrix(0.7071067690849304,-0.7071067690849304,0.7071067690849304,0.7071067690849304,-221.89759826660156,224.4619140625)" opacity="1" style="display: block;"><g opacity="1" transform="matrix(1,0,0,1,0,0)"><g opacity="1" transform="matrix(1,0,0,1,0,0)"><g opacity="1" transform="matrix(1,0,0,1,0,0)"><path fill="rgb(36,39,43)" fill-opacity="1" d=" M-41.15999984741211,56.93899917602539 C-41.15999984741211,56.93899917602539 -76.56800079345703,92.3489990234375 -76.56800079345703,92.3489990234375 C-76.56800079345703,92.3489990234375 -93.6510009765625,75.26799774169922 -93.6510009765625,75.26799774169922 C-93.6510009765625,75.26799774169922 -58.242000579833984,39.856998443603516 -58.242000579833984,39.856998443603516 C-58.242000579833984,39.856998443603516 -41.15999984741211,56.93899917602539 -41.15999984741211,56.93899917602539z"></path></g></g></g><g opacity="1" transform="matrix(1,0,0,1,0,0)"><g opacity="1" transform="matrix(1,0,0,1,0,0)"><g opacity="1" transform="matrix(1,0,0,1,0,0)"><path fill="rgb(19,24,30)" fill-opacity="1" d=" M-54.72100067138672,62.619998931884766 C-59.53300094604492,57.80799865722656 -67.33499908447266,57.80799865722656 -72.14700317382812,62.619998931884766 C-72.14700317382812,62.619998931884766 -72.14700317382812,62.619998931884766 -72.14700317382812,62.619998931884766 C-79.13999938964844,69.61299896240234 -79.13899993896484,80.9229965209961 -72.14600372314453,87.91600036621094 C-72.14600372314453,87.91600036621094 -76.5739974975586,92.34400177001953 -76.5739974975586,92.34400177001953 C-76.5739974975586,92.34400177001953 -93.6510009765625,75.26799774169922 -93.6510009765625,75.26799774169922 C-93.6510009765625,75.26799774169922 -58.242000579833984,39.856998443603516 -58.242000579833984,39.856998443603516 C-58.242000579833984,39.856998443603516 -41.165000915527344,56.93299865722656 -41.165000915527344,56.93299865722656 C-41.165000915527344,56.93299865722656 -50.7859992980957,66.55500030517578 -50.7859992980957,66.55500030517578 C-50.7859992980957,66.55500030517578 -54.72100067138672,62.619998931884766 -54.72100067138672,62.619998931884766z"></path></g></g></g><g opacity="1" transform="matrix(1,0,0,1,0,0)"><g opacity="1" transform="matrix(1,0,0,1,0,0)"><g opacity="1" transform="matrix(1,0,0,1,0,0)"><path fill="rgb(255,188,80)" fill-opacity="1" d=" M-74.34200286865234,101.42900085449219 C-74.34200286865234,101.42900085449219 -76.14099884033203,104.72699737548828 -76.14099884033203,104.72699737548828 C-78.302001953125,108.68699645996094 -83.66200256347656,109.45800018310547 -86.85199737548828,106.26799774169922 C-86.85199737548828,106.26799774169922 -107.56900024414062,85.552001953125 -107.56900024414062,85.552001953125 C-110.75900268554688,82.36199951171875 -109.98799896240234,77.00199890136719 -106.02799987792969,74.84100341796875 C-106.02799987792969,74.84100341796875 -102.73100280761719,73.04199981689453 -102.73100280761719,73.04199981689453 C-100.0989990234375,71.60600280761719 -96.83499908447266,72.07499694824219 -94.71499633789062,74.19499969482422 C-94.71499633789062,74.19499969482422 -75.49600219726562,93.41300201416016 -75.49600219726562,93.41300201416016 C-73.3759994506836,95.53299713134766 -72.90599822998047,98.7969970703125 -74.34200286865234,101.42900085449219z"></path></g></g></g><g opacity="1" transform="matrix(1,0,0,1,0,0)"><g opacity="1" transform="matrix(1,0,0,1,0,0)"><g opacity="1" transform="matrix(1,0,0,1,0,0)"><path fill="rgb(255,179,44)" fill-opacity="1" d=" M-77.927001953125,106.8239974975586 C-80.49199676513672,108.84700012207031 -84.34600067138672,108.78299713134766 -86.86299896240234,106.26599884033203 C-86.86299896240234,106.26599884033203 -107.572998046875,85.55799865722656 -107.572998046875,85.55799865722656 C-110.75900268554688,82.37200164794922 -109.97799682617188,77.00399780273438 -106.02799987792969,74.83799743652344 C-106.02799987792969,74.83799743652344 -102.73100280761719,73.03800201416016 -102.73100280761719,73.03800201416016 C-100.37300109863281,71.76399993896484 -97.52200317382812,72.00199890136719 -95.43499755859375,73.5790023803711 C-95.43499755859375,73.5790023803711 -97.74500274658203,74.83799743652344 -97.74500274658203,74.83799743652344 C-101.69599914550781,77.00399780273438 -102.4749984741211,82.37200164794922 -99.28900146484375,85.55799865722656 C-99.28900146484375,85.55799865722656 -78.56400299072266,106.28199768066406 -78.56400299072266,106.28199768066406 C-78.35700225830078,106.48899841308594 -78.1500015258789,106.66500091552734 -77.927001953125,106.8239974975586z"></path></g></g></g><g opacity="1" transform="matrix(1,0,0,1,0,0)"><g opacity="1" transform="matrix(1,0,0,1,0,0)"><g opacity="1" transform="matrix(1,0,0,1,0,0)"><path fill="rgb(255,188,80)" fill-opacity="1" d=" M-23.941999435424805,63.691001892089844 C-23.941999435424805,63.691001892089844 -35.56100082397461,64.85299682617188 -35.56100082397461,64.85299682617188 C-39.77799987792969,65.73200225830078 -44.154998779296875,64.427001953125 -47.20100021362305,61.38100051879883 C-47.20100021362305,61.38100051879883 -62.683998107910156,45.89899826049805 -62.683998107910156,45.89899826049805 C-65.7300033569336,42.85300064086914 -67.03600311279297,38.47700119018555 -66.15699768066406,34.2599983215332 C-66.15699768066406,34.2599983215332 -64.99500274658203,22.639999389648438 -64.99500274658203,22.639999389648438 C-64.99500274658203,22.639999389648438 -23.941999435424805,63.691001892089844 -23.941999435424805,63.691001892089844z"></path></g></g></g><g opacity="1" transform="matrix(1,0,0,1,0,0)"><g opacity="1" transform="matrix(1,0,0,1,0,0)"><g opacity="1" transform="matrix(1,0,0,1,0,0)"><path fill="rgb(255,179,44)" fill-opacity="1" d=" M-23.94499969482422,63.702999114990234 C-23.94499969482422,63.702999114990234 -28.61199951171875,64.16500091552734 -28.61199951171875,64.16500091552734 C-28.61199951171875,64.16500091552734 -53.41600036621094,39.362998962402344 -53.41600036621094,39.362998962402344 C-56.7130012512207,36.066001892089844 -62.36800003051758,38.09000015258789 -62.83000183105469,42.724998474121094 C-63.0369987487793,43.632999420166016 -63.11600112915039,44.54100036621094 -63.08399963378906,45.46500015258789 C-65.83999633789062,42.45399856567383 -67.00299835205078,38.29600143432617 -66.15899658203125,34.26599884033203 C-66.15899658203125,34.26599884033203 -64.99700164794922,22.65399932861328 -64.99700164794922,22.65399932861328 C-64.99700164794922,22.65399932861328 -23.94499969482422,63.702999114990234 -23.94499969482422,63.702999114990234z"></path></g></g></g><g opacity="1" transform="matrix(1,0,0,1,0,0)"><g opacity="1" transform="matrix(1,0,0,1,0,0)"><g opacity="1" transform="matrix(1,0,0,1,0,0)"><path fill="rgb(36,39,43)" fill-opacity="1" d=" M-6.986000061035156,62.9119987487793 C-6.986000061035156,62.9119987487793 -18.239999771118164,67.6510009765625 -18.239999771118164,67.6510009765625 C-19.04599952697754,67.91300201416016 -19.93199920654297,67.70099639892578 -20.5310001373291,67.10199737548828 C-20.5310001373291,67.10199737548828 -68.40599822998047,19.229000091552734 -68.40599822998047,19.229000091552734 C-69.00499725341797,18.6299991607666 -69.21800231933594,17.7450008392334 -68.95600128173828,16.93899917602539 C-68.95600128173828,16.93899917602539 -64.21800231933594,5.684999942779541 -64.21800231933594,5.684999942779541 C-63.696998596191406,4.085999965667725 -61.672000885009766,3.5999999046325684 -60.483001708984375,4.789000034332275 C-60.483001708984375,4.789000034332275 -6.091000080108643,59.178001403808594 -6.091000080108643,59.178001403808594 C-4.9019999504089355,60.367000579833984 -5.38700008392334,62.39099884033203 -6.986000061035156,62.9119987487793z"></path></g></g></g><g opacity="1" transform="matrix(1,0,0,1,0,0)"><g opacity="1" transform="matrix(1,0,0,1,0,0)"><g opacity="1" transform="matrix(1,0,0,1,0,0)"><path fill="rgb(19,24,30)" fill-opacity="1" d=" M-14.673999786376953,66.15599822998047 C-14.673999786376953,66.15599822998047 -18.242000579833984,67.65399932861328 -18.242000579833984,67.65399932861328 C-19.038999557495117,67.90899658203125 -19.94700050354004,67.70099639892578 -20.535999298095703,67.11199951171875 C-20.535999298095703,67.11199951171875 -68.4219970703125,19.229000091552734 -68.4219970703125,19.229000091552734 C-69.01200103759766,18.638999938964844 -69.21900177001953,17.731000900268555 -68.96399688720703,16.934999465942383 C-68.96399688720703,16.934999465942383 -64.21800231933594,5.689000129699707 -64.21800231933594,5.689000129699707 C-63.69200134277344,4.079999923706055 -61.685001373291016,3.6029999256134033 -60.4900016784668,4.797999858856201 C-60.4900016784668,4.797999858856201 -58.053001403808594,7.235000133514404 -58.053001403808594,7.235000133514404 C-58.053001403808594,7.235000133514404 -62.145999908447266,16.93600082397461 -62.145999908447266,16.93600082397461 C-62.41699981689453,17.74799919128418 -62.19300079345703,18.639999389648438 -61.604000091552734,19.229000091552734 C-61.604000091552734,19.229000091552734 -14.673999786376953,66.15599822998047 -14.673999786376953,66.15599822998047z"></path></g></g></g><g opacity="1" transform="matrix(1,0,0,1,0,0)"><g opacity="1" transform="matrix(1,0,0,1,0,0)"><g opacity="1" transform="matrix(1,0,0,1,0,0)"><path fill="rgb(229,245,249)" fill-opacity="1" d=" M-20.04400062561035,45.24100112915039 C-20.04400062561035,45.24100112915039 -46.55099868774414,18.735000610351562 -46.55099868774414,18.735000610351562 C-46.55099868774414,18.735000610351562 66.28600311279297,-89.16899871826172 66.28600311279297,-89.16899871826172 C67.7030029296875,-90.52300262451172 69.35900115966797,-91.54199981689453 71.20700073242188,-92.17900085449219 C71.20700073242188,-92.17900085449219 92.53600311279297,-99.58599853515625 92.53600311279297,-99.58599853515625 C96.10399627685547,-100.8290023803711 99.51300048828125,-97.41999816894531 98.27100372314453,-93.85199737548828 C98.27100372314453,-93.85199737548828 90.88099670410156,-72.50700378417969 90.88099670410156,-72.50700378417969 C90.22799682617188,-70.67500305175781 89.2249984741211,-69.00299835205078 87.87100219726562,-67.58499908447266 C87.87100219726562,-67.58499908447266 -20.04400062561035,45.24100112915039 -20.04400062561035,45.24100112915039z"></path></g></g></g><g opacity="1" transform="matrix(1,0,0,1,0,0)"><g opacity="1" transform="matrix(1,0,0,1,0,0)"><g opacity="1" transform="matrix(1,0,0,1,0,0)"><path fill="rgb(211,230,237)" fill-opacity="1" d=" M73.1520004272461,-69.52799987792969 C73.1520004272461,-69.52799987792969 -30.827999114990234,34.457000732421875 -30.827999114990234,34.457000732421875 C-30.827999114990234,34.457000732421875 -35.76599884033203,29.518999099731445 -35.76599884033203,29.518999099731445 C-35.76599884033203,29.518999099731445 68.21399688720703,-74.46600341796875 68.21399688720703,-74.46600341796875 C69.58399963378906,-75.83599853515625 71.7979965209961,-75.81999969482422 73.1520004272461,-74.46600341796875 C74.50599670410156,-73.11199951171875 74.52200317382812,-70.89800262451172 73.1520004272461,-69.52799987792969z"></path></g></g></g><g opacity="0.3" transform="matrix(1,0,0,1,0,0)"><g opacity="1" transform="matrix(1,0,0,1,0,0)"><g opacity="1" transform="matrix(1,0,0,1,0,0)"><g opacity="1" transform="matrix(1,0,0,1,0,0)"><g opacity="1" transform="matrix(1,0,0,1,0,0)"><path fill="rgb(255,255,255)" fill-opacity="1" d=" M-17.660999298095703,59.672000885009766 C-17.660999298095703,59.672000885009766 -18.98200035095215,58.35100173950195 -18.98200035095215,58.35100173950195 C-19.863000869750977,57.47100067138672 -19.86199951171875,56.04499816894531 -18.98200035095215,55.165000915527344 C-18.101999282836914,54.28499984741211 -16.67799949645996,54.28499984741211 -15.79699993133545,55.165000915527344 C-15.79699993133545,55.165000915527344 -14.47599983215332,56.486000061035156 -14.47599983215332,56.486000061035156 C-13.595000267028809,57.36600112915039 -13.595999717712402,58.79199981689453 -14.47599983215332,59.672000885009766 C-15.355999946594238,60.551998138427734 -16.780000686645508,60.551998138427734 -17.660999298095703,59.672000885009766z"></path></g></g></g></g><g opacity="1" transform="matrix(1,0,0,1,0,0)"><g opacity="1" transform="matrix(1,0,0,1,0,0)"><g opacity="1" transform="matrix(1,0,0,1,0,0)"><g opacity="1" transform="matrix(1,0,0,1,0,0)"><path fill="rgb(255,255,255)" fill-opacity="1" d=" M-24.405000686645508,52.928001403808594 C-24.405000686645508,52.928001403808594 -35.659000396728516,41.67499923706055 -35.659000396728516,41.67499923706055 C-36.540000915527344,40.79499816894531 -36.53900146484375,39.369998931884766 -35.659000396728516,38.4900016784668 C-34.77899932861328,37.61000061035156 -33.354000091552734,37.61000061035156 -32.472999572753906,38.4900016784668 C-32.472999572753906,38.4900016784668 -21.219999313354492,49.74300003051758 -21.219999313354492,49.74300003051758 C-20.339000701904297,50.62300109863281 -20.339000701904297,52.04800033569336 -21.2189998626709,52.928001403808594 C-22.099000930786133,53.80799865722656 -23.52400016784668,53.80799865722656 -24.405000686645508,52.928001403808594z"></path></g></g></g></g></g></g><g transform="matrix(0.7071067690849304,0.7071067690849304,-0.7071067690849304,0.7071067690849304,688.8001708984375,227.48013305664062)" opacity="1" style="display: block;"><g opacity="1" transform="matrix(1,0,0,1,0,0)"><g opacity="1" transform="matrix(1,0,0,1,0,0)"><g opacity="1" transform="matrix(1,0,0,1,0,0)"><path fill="rgb(36,39,43)" fill-opacity="1" d=" M58.233001708984375,39.85900115966797 C58.233001708984375,39.85900115966797 93.64399719238281,75.26899719238281 93.64399719238281,75.26899719238281 C93.64399719238281,75.26899719238281 76.56199645996094,92.35099792480469 76.56199645996094,92.35099792480469 C76.56199645996094,92.35099792480469 41.1510009765625,56.939998626708984 41.1510009765625,56.939998626708984 C41.1510009765625,56.939998626708984 58.233001708984375,39.85900115966797 58.233001708984375,39.85900115966797z"></path></g></g></g><g opacity="1" transform="matrix(1,0,0,1,0,0)"><g opacity="1" transform="matrix(1,0,0,1,0,0)"><g opacity="1" transform="matrix(1,0,0,1,0,0)"><path fill="rgb(19,24,30)" fill-opacity="1" d=" M63.91400146484375,53.41999816894531 C59.10200119018555,58.231998443603516 59.10200119018555,66.03399658203125 63.91400146484375,70.84600067138672 C63.91400146484375,70.84600067138672 63.91400146484375,70.84600067138672 63.91400146484375,70.84600067138672 C70.90699768066406,77.83899688720703 82.21700286865234,77.83999633789062 89.20999908447266,70.84700012207031 C89.20999908447266,70.84700012207031 93.63899993896484,75.2750015258789 93.63899993896484,75.2750015258789 C93.63899993896484,75.2750015258789 76.56199645996094,92.35099792480469 76.56199645996094,92.35099792480469 C76.56199645996094,92.35099792480469 41.1510009765625,56.939998626708984 41.1510009765625,56.939998626708984 C41.1510009765625,56.939998626708984 58.22800064086914,39.86399841308594 58.22800064086914,39.86399841308594 C58.22800064086914,39.86399841308594 67.8489990234375,49.48500061035156 67.8489990234375,49.48500061035156 C67.8489990234375,49.48500061035156 63.91400146484375,53.41999816894531 63.91400146484375,53.41999816894531z"></path></g></g></g><g opacity="1" transform="matrix(1,0,0,1,0,0)"><g opacity="1" transform="matrix(1,0,0,1,0,0)"><g opacity="1" transform="matrix(1,0,0,1,0,0)"><path fill="rgb(255,188,80)" fill-opacity="1" d=" M102.7239990234375,73.04299926757812 C102.7239990234375,73.04299926757812 106.02100372314453,74.84300231933594 106.02100372314453,74.84300231933594 C109.98100280761719,77.00399780273438 110.75299835205078,82.36399841308594 107.56300354003906,85.55400085449219 C107.56300354003906,85.55400085449219 86.84700012207031,106.2699966430664 86.84700012207031,106.2699966430664 C83.65699768066406,109.45999908447266 78.2969970703125,108.68800354003906 76.13600158691406,104.72799682617188 C76.13600158691406,104.72799682617188 74.33599853515625,101.43099975585938 74.33599853515625,101.43099975585938 C72.9000015258789,98.79900360107422 73.37000274658203,95.53500366210938 75.48999786376953,93.41500091552734 C75.48999786376953,93.41500091552734 94.70800018310547,74.1969985961914 94.70800018310547,74.1969985961914 C96.8280029296875,72.0770034790039 100.09200286865234,71.60700225830078 102.7239990234375,73.04299926757812z"></path></g></g></g><g opacity="1" transform="matrix(1,0,0,1,0,0)"><g opacity="1" transform="matrix(1,0,0,1,0,0)"><g opacity="1" transform="matrix(1,0,0,1,0,0)"><path fill="rgb(255,179,44)" fill-opacity="1" d=" M108.11799621582031,76.62899780273438 C110.14099884033203,79.19400024414062 110.0780029296875,83.0479965209961 107.56099700927734,85.56500244140625 C107.56099700927734,85.56500244140625 86.85299682617188,106.27300262451172 86.85299682617188,106.27300262451172 C83.66699981689453,109.45899963378906 78.2979965209961,108.67900085449219 76.13200378417969,104.72799682617188 C76.13200378417969,104.72799682617188 74.33200073242188,101.43099975585938 74.33200073242188,101.43099975585938 C73.05799865722656,99.072998046875 73.2969970703125,96.22200012207031 74.8740005493164,94.13500213623047 C74.8740005493164,94.13500213623047 76.13200378417969,96.44499969482422 76.13200378417969,96.44499969482422 C78.2979965209961,100.39600372314453 83.66699981689453,101.1760025024414 86.85299682617188,97.98999786376953 C86.85299682617188,97.98999786376953 107.5770034790039,77.26599884033203 107.5770034790039,77.26599884033203 C107.78399658203125,77.05899810791016 107.95899963378906,76.85199737548828 108.11799621582031,76.62899780273438z"></path></g></g></g><g opacity="1" transform="matrix(1,0,0,1,0,0)"><g opacity="1" transform="matrix(1,0,0,1,0,0)"><g opacity="1" transform="matrix(1,0,0,1,0,0)"><path fill="rgb(255,188,80)" fill-opacity="1" d=" M64.98500061035156,22.641000747680664 C64.98500061035156,22.641000747680664 66.14700317382812,34.26100158691406 66.14700317382812,34.26100158691406 C67.0260009765625,38.47800064086914 65.72100067138672,42.854000091552734 62.67499923706055,45.900001525878906 C62.67499923706055,45.900001525878906 47.19300079345703,61.38199996948242 47.19300079345703,61.38199996948242 C44.14699935913086,64.4280014038086 39.770999908447266,65.73300170898438 35.55400085449219,64.85399627685547 C35.55400085449219,64.85399627685547 23.93400001525879,63.69300079345703 23.93400001525879,63.69300079345703 C23.93400001525879,63.69300079345703 64.98500061035156,22.641000747680664 64.98500061035156,22.641000747680664z"></path></g></g></g><g opacity="1" transform="matrix(1,0,0,1,0,0)"><g opacity="1" transform="matrix(1,0,0,1,0,0)"><g opacity="1" transform="matrix(1,0,0,1,0,0)"><path fill="rgb(255,179,44)" fill-opacity="1" d=" M64.99800109863281,22.645000457763672 C64.99800109863281,22.645000457763672 65.45899963378906,27.312000274658203 65.45899963378906,27.312000274658203 C65.45899963378906,27.312000274658203 40.65700149536133,52.11399841308594 40.65700149536133,52.11399841308594 C37.36000061035156,55.4109992980957 39.38399887084961,61.066001892089844 44.01900100708008,61.52799987792969 C44.926998138427734,61.73500061035156 45.834999084472656,61.814998626708984 46.75899887084961,61.78300094604492 C43.74800109863281,64.53900146484375 39.59000015258789,65.70099639892578 35.560001373291016,64.85700225830078 C35.560001373291016,64.85700225830078 23.947999954223633,63.694000244140625 23.947999954223633,63.694000244140625 C23.947999954223633,63.694000244140625 64.99800109863281,22.645000457763672 64.99800109863281,22.645000457763672z"></path></g></g></g><g opacity="1" transform="matrix(1,0,0,1,0,0)"><g opacity="1" transform="matrix(1,0,0,1,0,0)"><g opacity="1" transform="matrix(1,0,0,1,0,0)"><path fill="rgb(36,39,43)" fill-opacity="1" d=" M64.20700073242188,5.685999870300293 C64.20700073242188,5.685999870300293 68.94499969482422,16.940000534057617 68.94499969482422,16.940000534057617 C69.20700073242188,17.746000289916992 68.99500274658203,18.631000518798828 68.39600372314453,19.229999542236328 C68.39600372314453,19.229999542236328 20.523000717163086,67.10399627685547 20.523000717163086,67.10399627685547 C19.923999786376953,67.7030029296875 19.038999557495117,67.91500091552734 18.232999801635742,67.65299987792969 C18.232999801635742,67.65299987792969 6.978000164031982,62.91400146484375 6.978000164031982,62.91400146484375 C5.379000186920166,62.393001556396484 4.894000053405762,60.36800003051758 6.083000183105469,59.17900085449219 C6.083000183105469,59.17900085449219 60.47200012207031,4.789999961853027 60.47200012207031,4.789999961853027 C61.6609992980957,3.6010000705718994 63.68600082397461,4.086999893188477 64.20700073242188,5.685999870300293z"></path></g></g></g><g opacity="1" transform="matrix(1,0,0,1,0,0)"><g opacity="1" transform="matrix(1,0,0,1,0,0)"><g opacity="1" transform="matrix(1,0,0,1,0,0)"><path fill="rgb(19,24,30)" fill-opacity="1" d=" M67.44999694824219,13.37399959564209 C67.44999694824219,13.37399959564209 68.947998046875,16.941999435424805 68.947998046875,16.941999435424805 C69.2030029296875,17.73900032043457 68.99600219726562,18.64699935913086 68.40699768066406,19.236000061035156 C68.40699768066406,19.236000061035156 20.523000717163086,67.11900329589844 20.523000717163086,67.11900329589844 C19.933000564575195,67.70899963378906 19.024999618530273,67.91600036621094 18.229000091552734,67.66100311279297 C18.229000091552734,67.66100311279297 6.982999801635742,62.91400146484375 6.982999801635742,62.91400146484375 C5.374000072479248,62.38800048828125 4.895999908447266,60.38100051879883 6.091000080108643,59.18600082397461 C6.091000080108643,59.18600082397461 8.527999877929688,56.749000549316406 8.527999877929688,56.749000549316406 C8.527999877929688,56.749000549316406 18.229000091552734,60.84299850463867 18.229000091552734,60.84299850463867 C19.041000366210938,61.11399841308594 19.93400001525879,60.88999938964844 20.523000717163086,60.30099868774414 C20.523000717163086,60.30099868774414 67.44999694824219,13.37399959564209 67.44999694824219,13.37399959564209z"></path></g></g></g><g opacity="1" transform="matrix(1,0,0,1,0,0)"><g opacity="1" transform="matrix(1,0,0,1,0,0)"><g opacity="1" transform="matrix(1,0,0,1,0,0)"><path fill="rgb(229,245,249)" fill-opacity="1" d=" M46.53499984741211,18.742000579833984 C46.53499984741211,18.742000579833984 20.02899932861328,45.24800109863281 20.02899932861328,45.24800109863281 C20.02899932861328,45.24800109863281 -87.8759994506836,-67.59400177001953 -87.8759994506836,-67.59400177001953 C-89.2300033569336,-69.01100158691406 -90.25,-70.66799926757812 -90.88700103759766,-72.51599884033203 C-90.88700103759766,-72.51599884033203 -98.29399871826172,-93.84600067138672 -98.29399871826172,-93.84600067138672 C-99.53700256347656,-97.41400146484375 -96.12799835205078,-100.822998046875 -92.55999755859375,-99.58000183105469 C-92.55999755859375,-99.58000183105469 -71.21399688720703,-92.18900299072266 -71.21399688720703,-92.18900299072266 C-69.38200378417969,-91.53600311279297 -67.70999908447266,-90.53299713134766 -66.29199981689453,-89.17900085449219 C-66.29199981689453,-89.17900085449219 46.53499984741211,18.742000579833984 46.53499984741211,18.742000579833984z"></path></g></g></g><g opacity="1" transform="matrix(1,0,0,1,0,0)"><g opacity="1" transform="matrix(1,0,0,1,0,0)"><g opacity="1" transform="matrix(1,0,0,1,0,0)"><path fill="rgb(229,245,249)" fill-opacity="1" d=" M46.52399826049805,18.740999221801758 C46.52399826049805,18.740999221801758 20.038999557495117,45.24800109863281 20.038999557495117,45.24800109863281 C20.038999557495117,45.24800109863281 4.875,29.381000518798828 4.875,29.381000518798828 C4.875,29.381000518798828 -29.858999252319336,-6.947000026702881 -29.858999252319336,-6.947000026702881 C-29.858999252319336,-6.947000026702881 -87.86699676513672,-67.60299682617188 -87.86699676513672,-67.60299682617188 C-89.22699737548828,-69.00900268554688 -90.25800323486328,-70.6729965209961 -90.89099884033203,-72.5250015258789 C-90.89099884033203,-72.5250015258789 -98.2969970703125,-93.85299682617188 -98.2969970703125,-93.85299682617188 C-99.53900146484375,-97.41600036621094 -96.11799621582031,-100.81400299072266 -92.55500030517578,-99.5719985961914 C-92.55500030517578,-99.5719985961914 -71.2030029296875,-92.18900299072266 -71.2030029296875,-92.18900299072266 C-69.375,-91.53299713134766 -67.70999908447266,-90.5250015258789 -66.28099822998047,-89.18900299072266 C-66.28099822998047,-89.18900299072266 -5.085999965667725,-30.642000198364258 -5.085999965667725,-30.642000198364258 C-5.085999965667725,-30.642000198364258 30.0939998626709,3.0139999389648438 30.0939998626709,3.0139999389648438 C30.0939998626709,3.0139999389648438 46.52399826049805,18.740999221801758 46.52399826049805,18.740999221801758z"></path></g></g></g><g opacity="1" transform="matrix(1,0,0,1,0,0)"><g opacity="1" transform="matrix(1,0,0,1,0,0)"><g opacity="1" transform="matrix(1,0,0,1,0,0)"><path fill="rgb(211,230,237)" fill-opacity="1" d=" M46.53499984741211,18.742000579833984 C46.53499984741211,18.742000579833984 20.02899932861328,45.24800109863281 20.02899932861328,45.24800109863281 C20.02899932861328,45.24800109863281 -87.8759994506836,-67.59400177001953 -87.8759994506836,-67.59400177001953 C-89.2300033569336,-69.01100158691406 -90.25,-70.66799926757812 -90.88700103759766,-72.51599884033203 C-90.88700103759766,-72.51599884033203 -98.29399871826172,-93.84600067138672 -98.29399871826172,-93.84600067138672 C-99.08999633789062,-96.13999938964844 -97.97599792480469,-98.33799743652344 -96.14399719238281,-99.30899810791016 C-96.14399719238281,-99.30899810791016 -90.21800231933594,-82.23300170898438 -90.21800231933594,-82.23300170898438 C-89.58100128173828,-80.38500213623047 -88.56099700927734,-78.72899627685547 -87.20700073242188,-77.31099700927734 C-87.20700073242188,-77.31099700927734 -0.041999999433755875,13.836000442504883 -0.041999999433755875,13.836000442504883 C11.331000328063965,25.750999450683594 30.27199935913086,25.95800018310547 41.91600036621094,14.314000129699707 C41.91600036621094,14.314000129699707 46.53499984741211,18.742000579833984 46.53499984741211,18.742000579833984z"></path></g></g></g><g opacity="1" transform="matrix(1,0,0,1,0,0)"><g opacity="1" transform="matrix(1,0,0,1,0,0)"><g opacity="1" transform="matrix(1,0,0,1,0,0)"><path fill="rgb(211,230,237)" fill-opacity="1" d=" M-68.23600006103516,-74.45999908447266 C-68.23600006103516,-74.45999908447266 35.750999450683594,29.525999069213867 35.750999450683594,29.525999069213867 C35.750999450683594,29.525999069213867 30.812999725341797,34.4640007019043 30.812999725341797,34.4640007019043 C30.812999725341797,34.4640007019043 -73.1729965209961,-69.52200317382812 -73.1729965209961,-69.52200317382812 C-74.54299926757812,-70.89199829101562 -74.52799987792969,-73.10600280761719 -73.17400360107422,-74.45999908447266 C-71.81999969482422,-75.81400299072266 -69.60600280761719,-75.83000183105469 -68.23600006103516,-74.45999908447266z"></path></g></g></g><g opacity="0.3" transform="matrix(1,0,0,1,0,0)"><g opacity="1" transform="matrix(1,0,0,1,0,0)"><g opacity="1" transform="matrix(1,0,0,1,0,0)"><g opacity="1" transform="matrix(1,0,0,1,0,0)"><g opacity="1" transform="matrix(1,0,0,1,0,0)"><path fill="rgb(255,255,255)" fill-opacity="1" d=" M60.965999603271484,16.361000061035156 C60.965999603271484,16.361000061035156 59.64500045776367,17.680999755859375 59.64500045776367,17.680999755859375 C58.76499938964844,18.56100082397461 57.34000015258789,18.56100082397461 56.459999084472656,17.680999755859375 C55.58000183105469,16.801000595092773 55.58000183105469,15.37600040435791 56.459999084472656,14.496000289916992 C56.459999084472656,14.496000289916992 57.779998779296875,13.175000190734863 57.779998779296875,13.175000190734863 C58.65999984741211,12.295000076293945 60.08599853515625,12.295000076293945 60.965999603271484,13.175000190734863 C61.84600067138672,14.055000305175781 61.84600067138672,15.480999946594238 60.965999603271484,16.361000061035156z"></path></g></g></g></g><g opacity="1" transform="matrix(1,0,0,1,0,0)"><g opacity="1" transform="matrix(1,0,0,1,0,0)"><g opacity="1" transform="matrix(1,0,0,1,0,0)"><g opacity="1" transform="matrix(1,0,0,1,0,0)"><path fill="rgb(255,255,255)" fill-opacity="1" d=" M54.222999572753906,23.104000091552734 C54.222999572753906,23.104000091552734 42.96900177001953,34.356998443603516 42.96900177001953,34.356998443603516 C42.0890007019043,35.23699951171875 40.66400146484375,35.23699951171875 39.784000396728516,34.356998443603516 C38.90399932861328,33.47700119018555 38.90399932861328,32.051998138427734 39.784000396728516,31.172000885009766 C39.784000396728516,31.172000885009766 51.0369987487793,19.917999267578125 51.0369987487793,19.917999267578125 C51.91699981689453,19.038000106811523 53.34299850463867,19.038000106811523 54.222999572753906,19.917999267578125 C55.10300064086914,20.79800033569336 55.10300064086914,22.224000930786133 54.222999572753906,23.104000091552734z"></path></g></g></g></g></g></g><g transform="matrix(0.20000000298023224,0,0,0.20000000298023224,158.5,294)" opacity="1" style="display: none;"><g opacity="1" transform="matrix(0.000002774416316242423,0,0,0.000002774416316242423,0,0)"><path fill="rgb(255,255,255)" fill-opacity="1" d=" M1.2246467572939613e-14,-200 C1.2246467572939613e-14,-200 0.5733515024185181,-13.5687837600708 7.071067810058594,-7.071067810058594 C13.5687837600708,-0.5733515024185181 200,0 200,0 C200,0 13.5687837600708,0.5733515024185181 7.071067810058594,7.071067810058594 C0.5733515024185181,13.5687837600708 1.2246467572939613e-14,200 1.2246467572939613e-14,200 C1.2246467572939613e-14,200 -0.5733515024185181,13.5687837600708 -7.071067810058594,7.071067810058594 C-13.5687837600708,0.5733515024185181 -200,2.4492935145879226e-14 -200,2.4492935145879226e-14 C-200,2.4492935145879226e-14 -13.5687837600708,-0.5733515024185181 -7.071067810058594,-7.071067810058594 C-0.5733515024185181,-13.5687837600708 1.2246467572939613e-14,-200 1.2246467572939613e-14,-200z"></path></g></g><g transform="matrix(0.20000000298023224,0,0,0.20000000298023224,158.5,294)" opacity="1" style="display: none;"><g opacity="1" transform="matrix(0,0,0,0,0,0)"><path fill="rgb(255,255,255)" fill-opacity="1" d=" M1.2246467572939613e-14,-200 C1.2246467572939613e-14,-200 0.5733515024185181,-13.5687837600708 7.071067810058594,-7.071067810058594 C13.5687837600708,-0.5733515024185181 200,0 200,0 C200,0 13.5687837600708,0.5733515024185181 7.071067810058594,7.071067810058594 C0.5733515024185181,13.5687837600708 1.2246467572939613e-14,200 1.2246467572939613e-14,200 C1.2246467572939613e-14,200 -0.5733515024185181,13.5687837600708 -7.071067810058594,7.071067810058594 C-13.5687837600708,0.5733515024185181 -200,2.4492935145879226e-14 -200,2.4492935145879226e-14 C-200,2.4492935145879226e-14 -13.5687837600708,-0.5733515024185181 -7.071067810058594,-7.071067810058594 C-0.5733515024185181,-13.5687837600708 1.2246467572939613e-14,-200 1.2246467572939613e-14,-200z"></path></g></g><g transform="matrix(0.20000000298023224,0,0,0.20000000298023224,326,295.5)" opacity="1" style="display: none;"><g opacity="1" transform="matrix(0.0000028242284315638244,0,0,0.0000028242284315638244,0,0)"><path fill="rgb(255,255,255)" fill-opacity="1" d=" M1.2246467572939613e-14,-200 C1.2246467572939613e-14,-200 0.5733515024185181,-13.5687837600708 7.071067810058594,-7.071067810058594 C13.5687837600708,-0.5733515024185181 200,0 200,0 C200,0 13.5687837600708,0.5733515024185181 7.071067810058594,7.071067810058594 C0.5733515024185181,13.5687837600708 1.2246467572939613e-14,200 1.2246467572939613e-14,200 C1.2246467572939613e-14,200 -0.5733515024185181,13.5687837600708 -7.071067810058594,7.071067810058594 C-13.5687837600708,0.5733515024185181 -200,2.4492935145879226e-14 -200,2.4492935145879226e-14 C-200,2.4492935145879226e-14 -13.5687837600708,-0.5733515024185181 -7.071067810058594,-7.071067810058594 C-0.5733515024185181,-13.5687837600708 1.2246467572939613e-14,-200 1.2246467572939613e-14,-200z"></path></g></g><g transform="matrix(0.20000000298023224,0,0,0.20000000298023224,326,295.5)" opacity="1" style="display: none;"><g opacity="1" transform="matrix(0,0,0,0,0,0)"><path fill="rgb(255,255,255)" fill-opacity="1" d=" M1.2246467572939613e-14,-200 C1.2246467572939613e-14,-200 0.5733515024185181,-13.5687837600708 7.071067810058594,-7.071067810058594 C13.5687837600708,-0.5733515024185181 200,0 200,0 C200,0 13.5687837600708,0.5733515024185181 7.071067810058594,7.071067810058594 C0.5733515024185181,13.5687837600708 1.2246467572939613e-14,200 1.2246467572939613e-14,200 C1.2246467572939613e-14,200 -0.5733515024185181,13.5687837600708 -7.071067810058594,7.071067810058594 C-13.5687837600708,0.5733515024185181 -200,2.4492935145879226e-14 -200,2.4492935145879226e-14 C-200,2.4492935145879226e-14 -13.5687837600708,-0.5733515024185181 -7.071067810058594,-7.071067810058594 C-0.5733515024185181,-13.5687837600708 1.2246467572939613e-14,-200 1.2246467572939613e-14,-200z"></path></g></g><g transform="matrix(1,0,0,1,202.5082550048828,273.9722595214844)" opacity="0.00022222222222652023" style="display: none;"><g opacity="1" transform="matrix(1,0,0,1,0,0)"><path fill="rgb(255,188,80)" fill-opacity="1" d=" M2.052999973297119,-27.42099952697754 C2.052999973297119,-27.42099952697754 14.755000114440918,-29.72100067138672 14.755000114440918,-29.72100067138672 C14.755000114440918,-29.72100067138672 2.0409998893737793,-32.02299880981445 2.0409998893737793,-32.02299880981445 C2.0409998893737793,-32.02299880981445 9.395999908447266,-42.63100051879883 9.395999908447266,-42.63100051879883 C9.395999908447266,-42.63100051879883 -1.1119999885559082,-35.345001220703125 -1.1119999885559082,-35.345001220703125 C-1.1119999885559082,-35.345001220703125 -3.494999885559082,-48.50199890136719 -3.494999885559082,-48.50199890136719 C-3.494999885559082,-48.50199890136719 -5.861999988555908,-35.430999755859375 -5.861999988555908,-35.430999755859375 C-5.861999988555908,-35.430999755859375 -16.788000106811523,-43.00699996948242 -16.788000106811523,-43.00699996948242 C-16.788000106811523,-43.00699996948242 -9.218999862670898,-32.09000015258789 -9.218999862670898,-32.09000015258789 C-9.218999862670898,-32.09000015258789 -22.30299949645996,-29.72100067138672 -22.30299949645996,-29.72100067138672 C-22.30299949645996,-29.72100067138672 -9.230999946594238,-27.354000091552734 -9.230999946594238,-27.354000091552734 C-9.230999946594238,-27.354000091552734 -16.80699920654297,-16.427000045776367 -16.80699920654297,-16.427000045776367 C-16.80699920654297,-16.427000045776367 -5.781000137329102,-24.07200050354004 -5.781000137329102,-24.07200050354004 C-5.781000137329102,-24.07200050354004 -3.494999885559082,-11.444999694824219 -3.494999885559082,-11.444999694824219 C-3.494999885559082,-11.444999694824219 -1.1920000314712524,-24.158000946044922 -1.1920000314712524,-24.158000946044922 C-1.1920000314712524,-24.158000946044922 9.414999961853027,-16.804000854492188 9.414999961853027,-16.804000854492188 C9.414999961853027,-16.804000854492188 2.052999973297119,-27.42099952697754 2.052999973297119,-27.42099952697754z"></path></g></g><g transform="matrix(1,0,0,1,318.4713134765625,180.10232543945312)" opacity="0.028016666666654828" style="display: none;"><g opacity="1" transform="matrix(1,0,0,1,0,0)"><path fill="rgb(255,188,80)" fill-opacity="1" d=" M5.827000141143799,21.81100082397461 C5.827000141143799,21.81100082397461 18.52899932861328,19.51099967956543 18.52899932861328,19.51099967956543 C18.52899932861328,19.51099967956543 5.815000057220459,17.208999633789062 5.815000057220459,17.208999633789062 C5.815000057220459,17.208999633789062 13.170000076293945,6.6020002365112305 13.170000076293945,6.6020002365112305 C13.170000076293945,6.6020002365112305 2.6619999408721924,13.88700008392334 2.6619999408721924,13.88700008392334 C2.6619999408721924,13.88700008392334 0.27900001406669617,0.7300000190734863 0.27900001406669617,0.7300000190734863 C0.27900001406669617,0.7300000190734863 -2.0880000591278076,13.800999641418457 -2.0880000591278076,13.800999641418457 C-2.0880000591278076,13.800999641418457 -13.013999938964844,6.224999904632568 -13.013999938964844,6.224999904632568 C-13.013999938964844,6.224999904632568 -5.445000171661377,17.142000198364258 -5.445000171661377,17.142000198364258 C-5.445000171661377,17.142000198364258 -18.52899932861328,19.51099967956543 -18.52899932861328,19.51099967956543 C-18.52899932861328,19.51099967956543 -5.456999778747559,21.878000259399414 -5.456999778747559,21.878000259399414 C-5.456999778747559,21.878000259399414 -13.032999992370605,32.80500030517578 -13.032999992370605,32.80500030517578 C-13.032999992370605,32.80500030517578 -2.006999969482422,25.15999984741211 -2.006999969482422,25.15999984741211 C-2.006999969482422,25.15999984741211 0.27900001406669617,37.7869987487793 0.27900001406669617,37.7869987487793 C0.27900001406669617,37.7869987487793 2.5820000171661377,25.073999404907227 2.5820000171661377,25.073999404907227 C2.5820000171661377,25.073999404907227 13.189000129699707,32.42900085449219 13.189000129699707,32.42900085449219 C13.189000129699707,32.42900085449219 5.827000141143799,21.81100082397461 5.827000141143799,21.81100082397461z"></path></g></g><g transform="matrix(1,0,0,1,205.22755432128906,272.6773681640625)" opacity="0.037400000000030506" style="display: none;"><g opacity="1" transform="matrix(1,0,0,1,0,0)"><path fill="rgb(255,188,80)" fill-opacity="1" d=" M2.052999973297119,-27.42099952697754 C2.052999973297119,-27.42099952697754 14.755000114440918,-29.72100067138672 14.755000114440918,-29.72100067138672 C14.755000114440918,-29.72100067138672 2.0409998893737793,-32.02299880981445 2.0409998893737793,-32.02299880981445 C2.0409998893737793,-32.02299880981445 9.395999908447266,-42.63100051879883 9.395999908447266,-42.63100051879883 C9.395999908447266,-42.63100051879883 -1.1119999885559082,-35.345001220703125 -1.1119999885559082,-35.345001220703125 C-1.1119999885559082,-35.345001220703125 -3.494999885559082,-48.50199890136719 -3.494999885559082,-48.50199890136719 C-3.494999885559082,-48.50199890136719 -5.861999988555908,-35.430999755859375 -5.861999988555908,-35.430999755859375 C-5.861999988555908,-35.430999755859375 -16.788000106811523,-43.00699996948242 -16.788000106811523,-43.00699996948242 C-16.788000106811523,-43.00699996948242 -9.218999862670898,-32.09000015258789 -9.218999862670898,-32.09000015258789 C-9.218999862670898,-32.09000015258789 -22.30299949645996,-29.72100067138672 -22.30299949645996,-29.72100067138672 C-22.30299949645996,-29.72100067138672 -9.230999946594238,-27.354000091552734 -9.230999946594238,-27.354000091552734 C-9.230999946594238,-27.354000091552734 -16.80699920654297,-16.427000045776367 -16.80699920654297,-16.427000045776367 C-16.80699920654297,-16.427000045776367 -5.781000137329102,-24.07200050354004 -5.781000137329102,-24.07200050354004 C-5.781000137329102,-24.07200050354004 -3.494999885559082,-11.444999694824219 -3.494999885559082,-11.444999694824219 C-3.494999885559082,-11.444999694824219 -1.1920000314712524,-24.158000946044922 -1.1920000314712524,-24.158000946044922 C-1.1920000314712524,-24.158000946044922 9.414999961853027,-16.804000854492188 9.414999961853027,-16.804000854492188 C9.414999961853027,-16.804000854492188 2.052999973297119,-27.42099952697754 2.052999973297119,-27.42099952697754z"></path></g></g><g transform="matrix(1,0,0,1,319.1275329589844,179.97531127929688)" opacity="0.018900000000022742" style="display: none;"><g opacity="1" transform="matrix(1,0,0,1,0,0)"><path fill="rgb(255,188,80)" fill-opacity="1" d=" M5.827000141143799,21.81100082397461 C5.827000141143799,21.81100082397461 18.52899932861328,19.51099967956543 18.52899932861328,19.51099967956543 C18.52899932861328,19.51099967956543 5.815000057220459,17.208999633789062 5.815000057220459,17.208999633789062 C5.815000057220459,17.208999633789062 13.170000076293945,6.6020002365112305 13.170000076293945,6.6020002365112305 C13.170000076293945,6.6020002365112305 2.6619999408721924,13.88700008392334 2.6619999408721924,13.88700008392334 C2.6619999408721924,13.88700008392334 0.27900001406669617,0.7300000190734863 0.27900001406669617,0.7300000190734863 C0.27900001406669617,0.7300000190734863 -2.0880000591278076,13.800999641418457 -2.0880000591278076,13.800999641418457 C-2.0880000591278076,13.800999641418457 -13.013999938964844,6.224999904632568 -13.013999938964844,6.224999904632568 C-13.013999938964844,6.224999904632568 -5.445000171661377,17.142000198364258 -5.445000171661377,17.142000198364258 C-5.445000171661377,17.142000198364258 -18.52899932861328,19.51099967956543 -18.52899932861328,19.51099967956543 C-18.52899932861328,19.51099967956543 -5.456999778747559,21.878000259399414 -5.456999778747559,21.878000259399414 C-5.456999778747559,21.878000259399414 -13.032999992370605,32.80500030517578 -13.032999992370605,32.80500030517578 C-13.032999992370605,32.80500030517578 -2.006999969482422,25.15999984741211 -2.006999969482422,25.15999984741211 C-2.006999969482422,25.15999984741211 0.27900001406669617,37.7869987487793 0.27900001406669617,37.7869987487793 C0.27900001406669617,37.7869987487793 2.5820000171661377,25.073999404907227 2.5820000171661377,25.073999404907227 C2.5820000171661377,25.073999404907227 13.189000129699707,32.42900085449219 13.189000129699707,32.42900085449219 C13.189000129699707,32.42900085449219 5.827000141143799,21.81100082397461 5.827000141143799,21.81100082397461z"></path></g></g><g style="display: none;" transform="matrix(1,0,0,1,203.20433044433594,273.64080810546875)" opacity="0.009738888888935832"><g opacity="1" transform="matrix(1,0,0,1,0,0)"><path fill="rgb(255,188,80)" fill-opacity="1" d=" M2.052999973297119,-27.42099952697754 C2.052999973297119,-27.42099952697754 14.755000114440918,-29.72100067138672 14.755000114440918,-29.72100067138672 C14.755000114440918,-29.72100067138672 2.0409998893737793,-32.02299880981445 2.0409998893737793,-32.02299880981445 C2.0409998893737793,-32.02299880981445 9.395999908447266,-42.63100051879883 9.395999908447266,-42.63100051879883 C9.395999908447266,-42.63100051879883 -1.1119999885559082,-35.345001220703125 -1.1119999885559082,-35.345001220703125 C-1.1119999885559082,-35.345001220703125 -3.494999885559082,-48.50199890136719 -3.494999885559082,-48.50199890136719 C-3.494999885559082,-48.50199890136719 -5.861999988555908,-35.430999755859375 -5.861999988555908,-35.430999755859375 C-5.861999988555908,-35.430999755859375 -16.788000106811523,-43.00699996948242 -16.788000106811523,-43.00699996948242 C-16.788000106811523,-43.00699996948242 -9.218999862670898,-32.09000015258789 -9.218999862670898,-32.09000015258789 C-9.218999862670898,-32.09000015258789 -22.30299949645996,-29.72100067138672 -22.30299949645996,-29.72100067138672 C-22.30299949645996,-29.72100067138672 -9.230999946594238,-27.354000091552734 -9.230999946594238,-27.354000091552734 C-9.230999946594238,-27.354000091552734 -16.80699920654297,-16.427000045776367 -16.80699920654297,-16.427000045776367 C-16.80699920654297,-16.427000045776367 -5.781000137329102,-24.07200050354004 -5.781000137329102,-24.07200050354004 C-5.781000137329102,-24.07200050354004 -3.494999885559082,-11.444999694824219 -3.494999885559082,-11.444999694824219 C-3.494999885559082,-11.444999694824219 -1.1920000314712524,-24.158000946044922 -1.1920000314712524,-24.158000946044922 C-1.1920000314712524,-24.158000946044922 9.414999961853027,-16.804000854492188 9.414999961853027,-16.804000854492188 C9.414999961853027,-16.804000854492188 2.052999973297119,-27.42099952697754 2.052999973297119,-27.42099952697754z"></path></g></g><g style="display: none;" transform="matrix(1,0,0,1,317.7862854003906,180.2349090576172)" opacity="0.037533333333365"><g opacity="1" transform="matrix(1,0,0,1,0,0)"><path fill="rgb(255,188,80)" fill-opacity="1" d=" M5.827000141143799,21.81100082397461 C5.827000141143799,21.81100082397461 18.52899932861328,19.51099967956543 18.52899932861328,19.51099967956543 C18.52899932861328,19.51099967956543 5.815000057220459,17.208999633789062 5.815000057220459,17.208999633789062 C5.815000057220459,17.208999633789062 13.170000076293945,6.6020002365112305 13.170000076293945,6.6020002365112305 C13.170000076293945,6.6020002365112305 2.6619999408721924,13.88700008392334 2.6619999408721924,13.88700008392334 C2.6619999408721924,13.88700008392334 0.27900001406669617,0.7300000190734863 0.27900001406669617,0.7300000190734863 C0.27900001406669617,0.7300000190734863 -2.0880000591278076,13.800999641418457 -2.0880000591278076,13.800999641418457 C-2.0880000591278076,13.800999641418457 -13.013999938964844,6.224999904632568 -13.013999938964844,6.224999904632568 C-13.013999938964844,6.224999904632568 -5.445000171661377,17.142000198364258 -5.445000171661377,17.142000198364258 C-5.445000171661377,17.142000198364258 -18.52899932861328,19.51099967956543 -18.52899932861328,19.51099967956543 C-18.52899932861328,19.51099967956543 -5.456999778747559,21.878000259399414 -5.456999778747559,21.878000259399414 C-5.456999778747559,21.878000259399414 -13.032999992370605,32.80500030517578 -13.032999992370605,32.80500030517578 C-13.032999992370605,32.80500030517578 -2.006999969482422,25.15999984741211 -2.006999969482422,25.15999984741211 C-2.006999969482422,25.15999984741211 0.27900001406669617,37.7869987487793 0.27900001406669617,37.7869987487793 C0.27900001406669617,37.7869987487793 2.5820000171661377,25.073999404907227 2.5820000171661377,25.073999404907227 C2.5820000171661377,25.073999404907227 13.189000129699707,32.42900085449219 13.189000129699707,32.42900085449219 C13.189000129699707,32.42900085449219 5.827000141143799,21.81100082397461 5.827000141143799,21.81100082397461z"></path></g></g><g transform="matrix(1,0,0,1,254.5,270.5)" opacity="0.046561111111117985" style="display: none;"><g opacity="1" transform="matrix(1,0,0,1,0,0)"><path fill="rgb(255,188,80)" fill-opacity="1" d=" M2.052999973297119,-27.42099952697754 C2.052999973297119,-27.42099952697754 14.755000114440918,-29.72100067138672 14.755000114440918,-29.72100067138672 C14.755000114440918,-29.72100067138672 2.0409998893737793,-32.02299880981445 2.0409998893737793,-32.02299880981445 C2.0409998893737793,-32.02299880981445 9.395999908447266,-42.63100051879883 9.395999908447266,-42.63100051879883 C9.395999908447266,-42.63100051879883 -1.1119999885559082,-35.345001220703125 -1.1119999885559082,-35.345001220703125 C-1.1119999885559082,-35.345001220703125 -3.494999885559082,-48.50199890136719 -3.494999885559082,-48.50199890136719 C-3.494999885559082,-48.50199890136719 -5.861999988555908,-35.430999755859375 -5.861999988555908,-35.430999755859375 C-5.861999988555908,-35.430999755859375 -16.788000106811523,-43.00699996948242 -16.788000106811523,-43.00699996948242 C-16.788000106811523,-43.00699996948242 -9.218999862670898,-32.09000015258789 -9.218999862670898,-32.09000015258789 C-9.218999862670898,-32.09000015258789 -22.30299949645996,-29.72100067138672 -22.30299949645996,-29.72100067138672 C-22.30299949645996,-29.72100067138672 -9.230999946594238,-27.354000091552734 -9.230999946594238,-27.354000091552734 C-9.230999946594238,-27.354000091552734 -16.80699920654297,-16.427000045776367 -16.80699920654297,-16.427000045776367 C-16.80699920654297,-16.427000045776367 -5.781000137329102,-24.07200050354004 -5.781000137329102,-24.07200050354004 C-5.781000137329102,-24.07200050354004 -3.494999885559082,-11.444999694824219 -3.494999885559082,-11.444999694824219 C-3.494999885559082,-11.444999694824219 -1.1920000314712524,-24.158000946044922 -1.1920000314712524,-24.158000946044922 C-1.1920000314712524,-24.158000946044922 9.414999961853027,-16.804000854492188 9.414999961853027,-16.804000854492188 C9.414999961853027,-16.804000854492188 2.052999973297119,-27.42099952697754 2.052999973297119,-27.42099952697754z"></path></g></g><g transform="matrix(1,0,0,1,249,150)" opacity="0.06506111111112745" style="display: none;"><g opacity="1" transform="matrix(1,0,0,1,0,0)"><path fill="rgb(255,188,80)" fill-opacity="1" d=" M5.827000141143799,21.81100082397461 C5.827000141143799,21.81100082397461 18.52899932861328,19.51099967956543 18.52899932861328,19.51099967956543 C18.52899932861328,19.51099967956543 5.815000057220459,17.208999633789062 5.815000057220459,17.208999633789062 C5.815000057220459,17.208999633789062 13.170000076293945,6.6020002365112305 13.170000076293945,6.6020002365112305 C13.170000076293945,6.6020002365112305 2.6619999408721924,13.88700008392334 2.6619999408721924,13.88700008392334 C2.6619999408721924,13.88700008392334 0.27900001406669617,0.7300000190734863 0.27900001406669617,0.7300000190734863 C0.27900001406669617,0.7300000190734863 -2.0880000591278076,13.800999641418457 -2.0880000591278076,13.800999641418457 C-2.0880000591278076,13.800999641418457 -13.013999938964844,6.224999904632568 -13.013999938964844,6.224999904632568 C-13.013999938964844,6.224999904632568 -5.445000171661377,17.142000198364258 -5.445000171661377,17.142000198364258 C-5.445000171661377,17.142000198364258 -18.52899932861328,19.51099967956543 -18.52899932861328,19.51099967956543 C-18.52899932861328,19.51099967956543 -5.456999778747559,21.878000259399414 -5.456999778747559,21.878000259399414 C-5.456999778747559,21.878000259399414 -13.032999992370605,32.80500030517578 -13.032999992370605,32.80500030517578 C-13.032999992370605,32.80500030517578 -2.006999969482422,25.15999984741211 -2.006999969482422,25.15999984741211 C-2.006999969482422,25.15999984741211 0.27900001406669617,37.7869987487793 0.27900001406669617,37.7869987487793 C0.27900001406669617,37.7869987487793 2.5820000171661377,25.073999404907227 2.5820000171661377,25.073999404907227 C2.5820000171661377,25.073999404907227 13.189000129699707,32.42900085449219 13.189000129699707,32.42900085449219 C13.189000129699707,32.42900085449219 5.827000141143799,21.81100082397461 5.827000141143799,21.81100082397461z"></path></g></g></g></svg>